<?xml version="1.0" encoding="UTF-8"?>
<svg id="Layer_1" data-name="Layer 1" xmlns="http://www.w3.org/2000/svg" xmlns:xlink="http://www.w3.org/1999/xlink" version="1.1" viewBox="0 0 1061 477">
  <defs>
    <style>
      .cls-1 {
        fill: none;
        stroke: #fff;
        stroke-linecap: round;
        stroke-linejoin: round;
        stroke-width: 3px;
      }

      .cls-2 {
        mask: url(#mask);
      }

      .cls-3 {
        fill: url(#linear-gradient);
      }

      .cls-3, .cls-4, .cls-5, .cls-6, .cls-7 {
        stroke-width: 0px;
      }

      .cls-4 {
        fill: url(#New_Gradient_Swatch_copy_3-2);
      }

      .cls-5 {
        fill: url(#New_Gradient_Swatch_copy_3);
      }

      .cls-8 {
        opacity: .3;
      }

      .cls-6 {
        fill: red;
      }

      .cls-7, .cls-9 {
        fill: #fff;
      }

      .cls-9 {
        font-family: MyriadPro-Regular, 'Myriad Pro';
        font-size: 36px;
      }
    </style>
    <linearGradient id="linear-gradient" x1="705.73" y1="433.27" x2="705.73" y2="245.27" gradientTransform="translate(-147.5 -140.5)" gradientUnits="userSpaceOnUse">
      <stop offset=".39" stop-color="#fff"/>
      <stop offset=".43" stop-color="#e9e9e9"/>
      <stop offset=".55" stop-color="#a3a3a3"/>
      <stop offset=".67" stop-color="#696969"/>
      <stop offset=".77" stop-color="#3b3b3b"/>
      <stop offset=".87" stop-color="#1b1b1b"/>
      <stop offset=".95" stop-color="#070707"/>
      <stop offset="1" stop-color="#000"/>
    </linearGradient>
    <mask id="mask" x="444.23" y="113.27" width="208" height="171" maskUnits="userSpaceOnUse">
      <rect class="cls-3" x="472.73" y="104.77" width="171" height="188" transform="translate(359.46 757) rotate(-90)"/>
    </mask>
    <linearGradient id="New_Gradient_Swatch_copy_3" data-name="New Gradient Swatch copy 3" x1="709.73" y1="340.82" x2="709.73" y2="225.27" gradientTransform="translate(-207.72 -88.28)" gradientUnits="userSpaceOnUse">
      <stop offset="0" stop-color="#78f9ff"/>
      <stop offset=".46" stop-color="#4ca8fb"/>
      <stop offset="1" stop-color="#1846f7"/>
    </linearGradient>
    <linearGradient id="New_Gradient_Swatch_copy_3-2" data-name="New Gradient Swatch copy 3" x1="636.89" y1="358.79" x2="782.57" y2="358.79" gradientTransform="translate(218.96 904.5) rotate(-90)" xlink:href="#New_Gradient_Swatch_copy_3"/>
  </defs>
  <g class="cls-8">
    <g>
      <line class="cls-1" x1="198.5" y1="375.5" x2="198.5" y2="25.26"/>
      <polygon class="cls-7" points="205.98 27.45 198.5 14.5 191.02 27.45 205.98 27.45"/>
    </g>
  </g>
  <g class="cls-8">
    <g>
      <line class="cls-1" x1="18" y1="195" x2="368.24" y2="195"/>
      <polygon class="cls-7" points="366.05 202.48 379 195 366.05 187.52 366.05 202.48"/>
    </g>
  </g>
  <circle class="cls-7" cx="235" cy="118" r="6"/>
  <circle class="cls-7" cx="269" cy="287" r="6"/>
  <circle class="cls-7" cx="113" cy="219" r="6"/>
  <text class="cls-9" transform="translate(96.86 453.46)"><tspan x="0" y="0">Vertex Shader</tspan></text>
  <text class="cls-9" transform="translate(725.86 453.46)"><tspan x="0" y="0">Fragment Shader</tspan></text>
  <g class="cls-8">
    <g>
      <line class="cls-1" x1="857.53" y1="374.29" x2="857.53" y2="24.06"/>
      <polygon class="cls-7" points="865.01 26.25 857.53 13.29 850.05 26.25 865.01 26.25"/>
    </g>
  </g>
  <g class="cls-8">
    <g>
      <line class="cls-1" x1="677.03" y1="193.79" x2="1027.27" y2="193.79"/>
      <polygon class="cls-7" points="1025.08 201.27 1038.03 193.79 1025.08 186.31 1025.08 201.27"/>
    </g>
  </g>
  <circle class="cls-7" cx="894.03" cy="116.79" r="6"/>
  <circle class="cls-7" cx="928.03" cy="285.79" r="6"/>
  <circle class="cls-7" cx="772.03" cy="217.79" r="6"/>
  <rect class="cls-6" x="874.03" y="118.79" width="13" height="13"/>
  <rect class="cls-6" x="891.03" y="118.79" width="13" height="13"/>
  <rect class="cls-6" x="857.03" y="135.79" width="13" height="13"/>
  <rect class="cls-6" x="874.03" y="135.79" width="13" height="13"/>
  <rect class="cls-6" x="891.03" y="135.79" width="13" height="13"/>
  <rect class="cls-6" x="840.03" y="152.79" width="13" height="13"/>
  <rect class="cls-6" x="857.03" y="152.79" width="13" height="13"/>
  <rect class="cls-6" x="874.03" y="152.79" width="13" height="13"/>
  <rect class="cls-6" x="891.03" y="152.79" width="13" height="13"/>
  <rect class="cls-6" x="823.03" y="169.79" width="13" height="13"/>
  <rect class="cls-6" x="840.03" y="169.79" width="13" height="13"/>
  <rect class="cls-6" x="857.03" y="169.79" width="13" height="13"/>
  <rect class="cls-6" x="874.03" y="169.79" width="13" height="13"/>
  <rect class="cls-6" x="891.03" y="169.79" width="13" height="13"/>
  <rect class="cls-6" x="806.03" y="186.79" width="13" height="13"/>
  <rect class="cls-6" x="823.03" y="186.79" width="13" height="13"/>
  <rect class="cls-6" x="840.03" y="186.79" width="13" height="13"/>
  <rect class="cls-6" x="857.03" y="186.79" width="13" height="13"/>
  <rect class="cls-6" x="874.03" y="186.79" width="13" height="13"/>
  <rect class="cls-6" x="891.03" y="186.79" width="13" height="13"/>
  <rect class="cls-6" x="772.03" y="203.79" width="13" height="13"/>
  <rect class="cls-6" x="789.03" y="203.79" width="13" height="13"/>
  <rect class="cls-6" x="806.03" y="203.79" width="13" height="13"/>
  <rect class="cls-6" x="823.03" y="203.79" width="13" height="13"/>
  <rect class="cls-6" x="840.03" y="203.79" width="13" height="13"/>
  <rect class="cls-6" x="857.03" y="203.79" width="13" height="13"/>
  <rect class="cls-6" x="874.03" y="203.79" width="13" height="13"/>
  <rect class="cls-6" x="891.03" y="203.79" width="13" height="13"/>
  <rect class="cls-6" x="789.03" y="220.79" width="13" height="13"/>
  <rect class="cls-6" x="806.03" y="220.79" width="13" height="13"/>
  <rect class="cls-6" x="823.03" y="220.79" width="13" height="13"/>
  <rect class="cls-6" x="840.03" y="220.79" width="13" height="13"/>
  <rect class="cls-6" x="857.03" y="220.79" width="13" height="13"/>
  <rect class="cls-6" x="874.03" y="220.79" width="13" height="13"/>
  <rect class="cls-6" x="891.03" y="220.79" width="13" height="13"/>
  <rect class="cls-6" x="908.03" y="220.79" width="13" height="13"/>
  <rect class="cls-6" x="823.03" y="237.79" width="13" height="13"/>
  <rect class="cls-6" x="840.03" y="237.79" width="13" height="13"/>
  <rect class="cls-6" x="857.03" y="237.79" width="13" height="13"/>
  <rect class="cls-6" x="874.03" y="237.79" width="13" height="13"/>
  <rect class="cls-6" x="891.03" y="237.79" width="13" height="13"/>
  <rect class="cls-6" x="908.03" y="237.79" width="13" height="13"/>
  <rect class="cls-6" x="857.03" y="254.79" width="13" height="13"/>
  <rect class="cls-6" x="874.03" y="254.79" width="13" height="13"/>
  <rect class="cls-6" x="891.03" y="254.79" width="13" height="13"/>
  <rect class="cls-6" x="908.03" y="254.79" width="13" height="13"/>
  <rect class="cls-6" x="908.03" y="271.79" width="13" height="13"/>
  <g class="cls-2">
    <g>
      <rect class="cls-5" x="451.79" y="136.99" width="100.44" height="115.55" transform="translate(307.24 696.78) rotate(-90)"/>
      <polygon class="cls-4" points="611.23 194.77 544.27 121.93 544.27 267.61 611.23 194.77"/>
    </g>
  </g>
</svg>