<svg id="Layer_1" data-name="Layer 1" xmlns="http://www.w3.org/2000/svg" version="1.1" viewBox="0 0 810 487">
  <defs>
    <style>
      .cls-1 {
        opacity: .7;
      }

      .cls-1, .cls-2 {
        font-size: 21px;
      }

      .cls-1, .cls-2, .cls-3, .cls-4 {
        fill: #fff;
      }

      .cls-1, .cls-2, .cls-4 {
        font-family: MyriadPro-Regular, 'Myriad Pro';
      }

      .cls-5 {
        fill: none;
        stroke: #fff;
        stroke-miterlimit: 10;
        stroke-width: 3px;
      }

      .cls-3 {
        stroke-width: 0px;
      }

      .cls-4 {
        font-size: 36px;
      }
    </style>
  </defs>
  <text class="cls-4" transform="translate(358.82 51.33)"><tspan x="0" y="0">Adapter</tspan></text>
  <text class="cls-4" transform="translate(358.82 169.33)"><tspan x="0" y="0">Device</tspan></text>
  <text class="cls-4" transform="translate(331.49 431.33)"><tspan x="0" y="0">Command</tspan><tspan x="34.09" y="43.2">Buffer</tspan></text>
  <text class="cls-4" transform="translate(337.66 297.33)"><tspan x="0" y="0">Command</tspan><tspan x="-87.46" y="43.2">Encoder&amp; Render Pass</tspan></text>
  <text class="cls-4" transform="translate(662.82 169.33)"><tspan x="0" y="0">Queue</tspan></text>
  <text class="cls-4" transform="translate(30.82 51.33)"><tspan x="0" y="0">Canvas</tspan></text>
  <text class="cls-4" transform="translate(30.82 169.33)"><tspan x="0" y="0">Context</tspan></text>
  <text class="cls-4" transform="translate(30.82 290.33)"><tspan x="0" y="0">Texture</tspan></text>
  <g>
    <line class="cls-5" x1="411" y1="82.1" x2="411" y2="112.15"/>
    <polygon class="cls-3" points="403.37 109.92 411 123.13 418.63 109.92 403.37 109.92"/>
  </g>
  <g>
    <line class="cls-5" x1="85" y1="82.1" x2="85" y2="112.15"/>
    <polygon class="cls-3" points="77.37 109.92 85 123.13 92.63 109.92 77.37 109.92"/>
  </g>
  <g>
    <line class="cls-5" x1="205.98" y1="159.62" x2="310" y2="159.62"/>
    <polygon class="cls-3" points="208.21 167.24 195 159.62 208.21 151.99 208.21 167.24"/>
  </g>
  <g>
    <line class="cls-5" x1="514" y1="159.5" x2="618.02" y2="159.5"/>
    <polygon class="cls-3" points="615.79 167.13 629 159.5 615.79 151.87 615.79 167.13"/>
  </g>
  <g>
    <line class="cls-5" x1="195" y1="284.5" x2="299.02" y2="284.5"/>
    <polygon class="cls-3" points="296.79 292.13 310 284.5 296.79 276.87 296.79 292.13"/>
  </g>
  <g>
    <line class="cls-5" x1="411" y1="208.1" x2="411" y2="238.15"/>
    <polygon class="cls-3" points="403.37 235.92 411 249.13 418.63 235.92 403.37 235.92"/>
  </g>
  <g>
    <line class="cls-5" x1="85" y1="208.1" x2="85" y2="238.15"/>
    <polygon class="cls-3" points="77.37 235.92 85 249.13 92.63 235.92 77.37 235.92"/>
  </g>
  <g>
    <line class="cls-5" x1="411" y1="364.1" x2="411" y2="394.15"/>
    <polygon class="cls-3" points="403.37 391.92 411 405.13 418.63 391.92 403.37 391.92"/>
  </g>
  <g>
    <polyline class="cls-5" points="501 421.13 722.5 421.13 722.5 232.48"/>
    <polygon class="cls-3" points="730.13 234.71 722.5 221.5 714.87 234.71 730.13 234.71"/>
  </g>
  <text class="cls-1" transform="translate(531.82 144.72)"><tspan x="0" y="0">provides</tspan></text>
  <text class="cls-1" transform="translate(431.82 102.72)"><tspan x="0" y="0">creates</tspan></text>
  <text class="cls-1" transform="translate(100.82 102.72)"><tspan x="0" y="0">creates</tspan></text>
  <text class="cls-1" transform="translate(101.82 234.72)"><tspan x="0" y="0">provides</tspan></text>
  <text class="cls-1" transform="translate(431.82 234.72)"><tspan x="0" y="0">creates</tspan></text>
  <text class="cls-1" transform="translate(431.82 390.72)"><tspan x="0" y="0">creates</tspan></text>
  <text class="cls-1" transform="translate(564.82 446.72)"><tspan x="0" y="0">used by</tspan></text>
  <text class="cls-1" transform="translate(219.82 312.72)"><tspan x="0" y="0">used by</tspan></text>
  <text class="cls-1" transform="translate(208.82 144.72)"><tspan x="0" y="0">connets to</tspan></text>
  <text class="cls-2" transform="translate(657.82 195.72)"><tspan x="0" y="0">of executions</tspan></text>
</svg>