<svg xmlns="http://www.w3.org/2000/svg" xmlns:xlink="http://www.w3.org/1999/xlink" viewBox="0 0 621 377" xmlns:v="https://vecta.io/nano"><style><![CDATA[.B{fill:none}.C{stroke-miterlimit:10}.D{stroke-width:2}]]></style><defs><radialGradient id="A" cx="206.33" cy="120.74" fx="206.33" fy="120.74" r="99" xlink:href="#AW"><stop offset="0" stop-color="#212368"/><stop offset=".77" stop-color="rgba(33, 35, 104, .23)" stop-opacity=".23"/><stop offset="1" stop-color="#212368" stop-opacity="0"/></radialGradient><radialGradient id="B" cx="242.33" cy="228.74" fx="242.33" fy="228.74" r="96" xlink:href="#A"/><radialGradient id="C" cx="434.33" cy="189.74" fx="434.33" fy="189.74" r="187" xlink:href="#A"/><linearGradient id="D" x1="456.26" y1="157.82" x2="501.31" y2="157.82" xlink:href="#AW"><stop offset=".58" stop-color="#fff"/><stop offset=".72" stop-color="#aeaeae"/><stop offset="1"/></linearGradient><linearGradient id="E" x1="312.33" y1="71.79" x2="312.33" y2="33.25" xlink:href="#AW"><stop offset=".65" stop-color="#fff"/><stop offset=".77" stop-color="#aeaeae"/><stop offset="1"/></linearGradient><linearGradient id="F" x1="162.71" y1="157.82" x2="122.11" y2="157.82" xlink:href="#AW"><stop offset=".64" stop-color="#fff"/><stop offset=".76" stop-color="#aeaeae"/><stop offset="1"/></linearGradient><linearGradient id="G" x1="312.33" y1="248.31" x2="312.33" y2="275.92" xlink:href="#AW"><stop offset=".51" stop-color="#fff"/><stop offset=".61" stop-color="#c6c6c6"/><stop offset=".88" stop-color="#393939"/><stop offset="1"/></linearGradient><radialGradient id="H" cx="304.57" cy="100.32" fx="304.57" fy="100.32" r="73" gradientTransform="translate(55.04 70.81) scale(.51 .96)" xlink:href="#AW"><stop offset="0"/><stop offset=".16" stop-color="#030303"/><stop offset=".29" stop-color="#0d0d0d"/><stop offset=".41" stop-color="#1e1e1e"/><stop offset=".52" stop-color="#353535"/><stop offset=".63" stop-color="#545454"/><stop offset=".74" stop-color="#7a7a7a"/><stop offset=".84" stop-color="#a7a7a7"/><stop offset=".94" stop-color="#dadada"/><stop offset="1" stop-color="#fff"/></radialGradient><radialGradient id="I" cx="239.36" cy="22.62" fx="239.36" fy="22.62" gradientTransform="translate(210.23 -19.2) rotate(90) scale(.45)" xlink:href="#H"/><radialGradient id="J" cx="719.91" cy="146.42" fx="719.91" fy="146.42" r="73" gradientTransform="translate(90.13 35.65) scale(.46 .84)" xlink:href="#AW"><stop offset="0"/><stop offset=".26" stop-color="#020202"/><stop offset=".39" stop-color="#0a0a0a"/><stop offset=".5" stop-color="#171717"/><stop offset=".6" stop-color="#2b2b2b"/><stop offset=".68" stop-color="#444"/><stop offset=".76" stop-color="#636363"/><stop offset=".83" stop-color="#878787"/><stop offset=".9" stop-color="#b2b2b2"/><stop offset=".96" stop-color="#e1e1e1"/><stop offset="1" stop-color="#fff"/></radialGradient><radialGradient id="K" cx="508.54" cy="174.52" fx="508.54" fy="174.52" gradientTransform="translate(40.85 295.61) rotate(-90) scale(.36 1.55)" xlink:href="#J"/><radialGradient id="L" cx="534.88" cy="285.33" fx="534.88" fy="285.33" r="73" gradientTransform="translate(797.87 -38.65) rotate(90) scale(.46 1.71)" xlink:href="#AW"><stop offset="0"/><stop offset=".21" stop-color="#020202"/><stop offset=".34" stop-color="#0b0b0b"/><stop offset=".46" stop-color="#1a1a1a"/><stop offset=".56" stop-color="#2f2f2f"/><stop offset=".66" stop-color="#4a4a4a"/><stop offset=".74" stop-color="#6b6b6b"/><stop offset=".83" stop-color="#939393"/><stop offset=".91" stop-color="#c1c1c1"/><stop offset=".99" stop-color="#f4f4f4"/><stop offset="1" stop-color="#fff"/></radialGradient><mask id="M" x="114.33" y="28.11" width="396" height="259.43" maskUnits="userSpaceOnUse"><g stroke-width="0"><path d="M135.83 287.54c-11.85 0-21.5-9.64-21.5-21.5V28.11h396v237.93c0 11.85-9.64 21.5-21.5 21.5h-353z" fill="url(#D)" style="mix-blend-mode:multiply"/><path d="M135.83 287.54c-11.85 0-21.5-9.64-21.5-21.5V28.11h396v237.93c0 11.85-9.64 21.5-21.5 21.5h-353z" fill="url(#E)" style="mix-blend-mode:multiply"/><path d="M135.83 287.54c-11.85 0-21.5-9.64-21.5-21.5V28.11h396v237.93c0 11.85-9.64 21.5-21.5 21.5h-353z" fill="url(#F)" style="mix-blend-mode:multiply"/><path d="M135.83 287.54c-11.85 0-21.5-9.64-21.5-21.5V28.11h396v237.93c0 11.85-9.64 21.5-21.5 21.5h-353z" fill="url(#G)" style="mix-blend-mode:multiply"/><ellipse cx="211.5" cy="167" rx="37.5" ry="70" style="mix-blend-mode:multiply" fill="url(#H)"/><circle cx="200" cy="89" r="33" style="mix-blend-mode:multiply" fill="url(#I)"/><ellipse cx="420.5" cy="158" rx="33.5" ry="61" style="mix-blend-mode:multiply" fill="url(#J)"/><ellipse cx="311" cy="112.75" rx="113" ry="26.25" style="mix-blend-mode:multiply" fill="url(#K)"/><ellipse cx="309.36" cy="206.81" rx="124.98" ry="33.5" transform="matrix(.993512 -.113723 .113723 .993512 -21.52 36.55)" style="mix-blend-mode:multiply" fill="url(#L)"/></g></mask><linearGradient id="N" x1="230.83" y1="158.74" x2="311.83" y2="158.74" xlink:href="#AW"><stop offset="0" stop-color="#fff"/><stop offset=".04" stop-color="#efefef"/><stop offset=".19" stop-color="#b0b0b0"/><stop offset=".35" stop-color="#7a7a7a"/><stop offset=".5" stop-color="#4e4e4e"/><stop offset=".64" stop-color="#2c2c2c"/><stop offset=".77" stop-color="#131313"/><stop offset=".9" stop-color="#050505"/><stop offset="1"/></linearGradient><linearGradient id="O" x1="423.59" y1="113.61" x2="372.06" y2="202.86" xlink:href="#AW"><stop offset="0" stop-color="#59697a"/><stop offset=".97" stop-color="#11192b"/><stop offset="1" stop-color="#101729"/></linearGradient><linearGradient id="P" y1="202.86" y2="113.61" xlink:href="#O"/><linearGradient id="Q" x1="302.94" y1="188.86" x2="267.86" y2="249.62" xlink:href="#AW"><stop offset="0" stop-color="#59697a"/><stop offset=".97" stop-color="#11192b"/><stop offset="1" stop-color="#101729"/></linearGradient><linearGradient id="R" x1="229.33" y1="219.24" x2="341.48" y2="219.24" xlink:href="#Q"/><linearGradient id="S" x1="341.32" y1="84.4" x2="253.43" y2="236.63" xlink:href="#AW"><stop offset="0" stop-color="#f7fcff"/><stop offset=".96" stop-color="#a7b0ca"/><stop offset="1" stop-color="#a4adc8"/></linearGradient><linearGradient id="T" x1="341.42" y1="231.74" x2="252.78" y2="78.22" xlink:href="#S"/><linearGradient id="U" x1="231.33" y1="158.74" x2="311.33" y2="158.74" xlink:href="#S"/><linearGradient id="V" x1="267.285" y1="139.749" x2="274.407" y2="141.953" xlink:href="#O"/><linearGradient id="W" x1="259.87" y1="142.895" x2="267.273" y2="142.011" xlink:href="#O"/><linearGradient id="X" x1="254.385" y1="148.784" x2="260.788" y2="144.966" xlink:href="#O"/><linearGradient id="Y" x1="251.764" y1="156.396" x2="256.061" y2="150.303" xlink:href="#O"/><linearGradient id="Z" x1="252.463" y1="164.412" x2="253.91" y2="157.099" xlink:href="#O"/><linearGradient id="a" x1="256.369" y1="171.452" x2="254.716" y2="164.182" xlink:href="#O"/><linearGradient id="b" x1="262.801" y1="176.303" x2="258.335" y2="170.334" xlink:href="#O"/><linearGradient id="c" x1="270.642" y1="178.111" x2="264.134" y2="174.475" xlink:href="#O"/><linearGradient id="d" x1="278.548" y1="176.572" x2="271.123" y2="175.897" xlink:href="#O"/><linearGradient id="e" x1="285.137" y1="171.958" x2="278.08" y2="174.361" xlink:href="#O"/><linearGradient id="f" x1="289.287" y1="165.059" x2="283.817" y2="170.125" xlink:href="#O"/><linearGradient id="g" x1="290.258" y1="157.063" x2="287.322" y2="163.915" xlink:href="#O"/><linearGradient id="h" x1="287.913" y1="149.365" x2="288.018" y2="156.819" xlink:href="#O"/><linearGradient id="i" x1="282.628" y1="143.293" x2="285.756" y2="150.06" xlink:href="#O"/><linearGradient id="j" x1="275.33" y1="139.89" x2="280.94" y2="144.8" xlink:href="#O"/><linearGradient id="k" x1="330.55" y1="214.34" x2="330.55" y2="226.24" xlink:href="#AW"><stop offset="0" stop-color="#78f9ff"/><stop offset=".46" stop-color="#4ca8fb"/><stop offset="1" stop-color="#1846f7"/></linearGradient><linearGradient id="l" x1="321.55" x2="321.55" xlink:href="#k"/><linearGradient id="m" x1="312.55" x2="312.55" xlink:href="#k"/><linearGradient id="n" x1="303.55" x2="303.55" xlink:href="#k"/><linearGradient id="o" x1="294.55" x2="294.55" xlink:href="#k"/><linearGradient id="p" x1="285.55" x2="285.55" xlink:href="#k"/><linearGradient id="q" x1="276.55" x2="276.55" xlink:href="#k"/><linearGradient id="r" x1="267.55" x2="267.55" xlink:href="#k"/><linearGradient id="s" x1="258.55" x2="258.55" xlink:href="#k"/><linearGradient id="t" x1="249.55" x2="249.55" xlink:href="#k"/><linearGradient id="u" x1="240.55" x2="240.55" xlink:href="#k"/><linearGradient id="v" x1="206.69" y1="112.35" x2="190.47" y2="140.44" xlink:href="#Q"/><linearGradient id="w" x1="205.61" y1="150.87" x2="191.54" y2="175.24" xlink:href="#Q"/><linearGradient id="x" x1="201.26" y1="177.75" x2="187.2" y2="153.38" xlink:href="#Q"/><linearGradient id="y" x1="261.83" y1="158.74" x2="280.83" y2="158.74" xlink:href="#O"/><linearGradient id="z" x1="260.33" y1="158.74" x2="282.33" y2="158.74" xlink:href="#S"/><linearGradient id="AA" x1="202.34" y1="142.95" x2="186.12" y2="114.86" xlink:href="#Q"/><linearGradient id="AB" x1="233.03" y1="84.22" x2="167.5" y2="197.71" xlink:href="#Q"/><linearGradient id="AC" x1="236.45" y1="206.77" x2="164.57" y2="82.25" xlink:href="#Q"/><linearGradient id="AD" x1="354.56" y1="148.34" x2="354.56" y2="168.53" xlink:href="#S"/><linearGradient id="AE" x1="354.56" y1="148.34" x2="354.56" y2="168.53" xlink:href="#O"/><linearGradient id="AF" x1="360.33" y1="130.09" x2="374.27" y2="130.09" xlink:href="#O"/><linearGradient id="AG" x1="358.75" y1="130.09" x2="375.84" y2="130.09" xlink:href="#S"/><linearGradient id="AH" x1="342.75" y1="130.09" x2="359.84" y2="130.09" xlink:href="#S"/><linearGradient id="AI" x1="326.75" y1="130.09" x2="343.84" y2="130.09" xlink:href="#S"/><linearGradient id="AJ" x1="310.75" y1="130.09" x2="327.84" y2="130.09" xlink:href="#S"/><linearGradient id="AK" x1="360.33" y1="187.09" x2="374.27" y2="187.09" xlink:href="#O"/><linearGradient id="AL" x1="358.75" y1="187.09" x2="375.84" y2="187.09" xlink:href="#S"/><linearGradient id="AM" x1="342.75" y1="187.09" x2="359.84" y2="187.09" xlink:href="#S"/><linearGradient id="AN" x1="326.75" y1="187.09" x2="343.84" y2="187.09" xlink:href="#S"/><linearGradient id="AO" x1="310.75" y1="187.09" x2="327.84" y2="187.09" xlink:href="#S"/><radialGradient id="AP" cx="254.83" cy="139.24" fx="254.83" fy="139.24" r="33.5" xlink:href="#AW"><stop offset="0" stop-color="#a14585"/><stop offset=".15" stop-color="rgba(161, 69, 133, .97)" stop-opacity=".97"/><stop offset=".31" stop-color="rgba(161, 69, 133, .89)" stop-opacity=".89"/><stop offset=".47" stop-color="rgba(161, 69, 133, .76)" stop-opacity=".76"/><stop offset=".64" stop-color="rgba(161, 69, 133, .57)" stop-opacity=".57"/><stop offset=".81" stop-color="rgba(161, 69, 133, .34)" stop-opacity=".34"/><stop offset=".97" stop-color="rgba(161, 69, 133, .05)" stop-opacity=".05"/><stop offset="1" stop-color="#a14585" stop-opacity="0"/></radialGradient><radialGradient id="AQ" cx="349.83" cy="214.24" fx="349.83" fy="214.24" r="68.5" xlink:href="#AW"><stop offset="0" stop-color="#1846f7"/><stop offset=".39" stop-color="rgba(24, 70, 247, .62)" stop-opacity=".62"/><stop offset="1" stop-color="#1846f7" stop-opacity="0"/></radialGradient><path id="AR" d="M326.36,158.45c0-5.8,4.62-10.11,10.11-10.11,2.88,0,5.24,1.09,6.89,2.86.25.22.25.5-.03.81l-2.32,2.46c-.22.25-.48.25-.67.06-1.01-.84-2.24-1.4-3.84-1.4-2.97,0-5.21,2.24-5.21,5.32s2.24,5.29,5.46,5.29c2.6,0,3.98-1.37,4.12-2.86h-4.23c-.25,0-.42-.17-.42-.42v-3.44c0-.25.17-.42.42-.42h8.51c.25,0,.42.17.42.42v2.21c0,5.1-3.36,9.3-8.99,9.3s-10.22-4.28-10.22-10.08Z"/><path id="AS" d="M349.6 167.71v-18.7c0-.25.17-.45.42-.45h6.16c4.82 0 7.08 2.63 7.08 6.5s-2.27 6.5-7.08 6.5h-1.71v6.16a.45.45 0 0 1-.45.45h-4c-.25 0-.42-.2-.42-.45zm6.47-10.47c1.29 0 2.55-.34 2.55-2.18s-1.26-2.18-2.55-2.18h-1.6v4.37h1.6z"/><path id="AT" d="M367.16,160.27v-11.26c0-.25.17-.45.42-.45h4c.25,0,.45.2.45.45v11.23c0,2.21.98,3.5,2.91,3.5s2.91-1.29,2.91-3.5v-11.23c0-.25.2-.45.45-.45h4c.25,0,.45.2.45.45v11.26c0,5.49-3.28,8.26-7.81,8.26s-7.78-2.77-7.78-8.26Z"/><path id="AU" d="M374.27 135.74h-8.63l-5.31-11.29h8.63l5.31 11.29z"/><path id="AV" d="M374.27 181.45h-8.63l-5.31 11.29h8.63l5.31-11.29z"/><linearGradient id="AW" gradientUnits="userSpaceOnUse"/></defs><circle cx="206.33" cy="120.74" r="99" fill="url(#A)"/><circle cx="242.33" cy="228.74" r="96" fill="url(#B)"/><circle cx="434.33" cy="189.74" r="187" fill="url(#C)"/><g opacity=".25"><path d="M488.83 3.94c6.34 0 11.5 5.16 11.5 11.5v250.6c0 6.34-5.16 11.5-11.5 11.5h-353c-6.34 0-11.5-5.16-11.5-11.5V15.44c0-6.34 5.16-11.5 11.5-11.5h353m0-4h-353c-8.56 0-15.5 6.94-15.5 15.5v250.6c0 8.56 6.94 15.5 15.5 15.5h353c8.56 0 15.5-6.94 15.5-15.5V15.44c0-8.56-6.94-15.5-15.5-15.5h0z" fill="#fff"/></g><g fill="#fff"><path d="M504.33 34.11h-384V15.44c0-8.56 6.94-15.5 15.5-15.5h353c8.56 0 15.5 6.94 15.5 15.5v18.68z" opacity=".15"/><circle cx="184.33" cy="18.74" r="7" opacity=".2"/><circle cx="163.33" cy="18.74" r="7" opacity=".2"/><circle cx="142.33" cy="18.74" r="7" opacity=".2"/></g><g mask="url(#M)" class="B C"><path d="M150.67 34.11l-30.34 20.9m57.3-20.9l-57.3 39.48m84.27-39.48l-84.27 58.06m111.23-58.06l-111.23 76.64m138.2-76.64l-138.2 95.22m165.16-95.22L120.33 147.9M312.46 34.11L120.33 166.48m219.1-132.37l-219.1 150.95M366.39 34.11L120.33 203.64M393.36 34.11L120.33 222.22M420.32 34.11L120.33 240.8M447.29 34.11L120.33 259.38M474.26 34.11L123.67 275.65M501.22 34.11L142.09 281.54M504.33 50.55L169.06 281.54M504.33 69.13L196.02 281.54M504.33 87.7L222.99 281.54m281.34-175.26L249.96 281.54m254.37-156.68L276.92 281.54m227.41-138.1l-200.44 138.1m200.44-119.52L330.85 281.54M504.33 180.6L357.82 281.54m146.51-82.36l-119.55 82.36m119.55-63.78l-92.58 63.78m92.58-45.21l-65.61 45.21m65.61-26.63l-38.65 26.63" opacity=".17" stroke="#fff" stroke-width="4"/></g><circle cx="271.33" cy="158.74" r="38" stroke="url(#N)" stroke-width="5" class="B"/><rect x="371.83" y="111.24" width="52" height="94" rx="5.94" fill="url(#O)"/><path d="M417.89 113.24a3.95 3.95 0 0 1 3.94 3.94v82.12a3.95 3.95 0 0 1-3.94 3.94h-40.12a3.95 3.95 0 0 1-3.94-3.94v-82.12a3.95 3.95 0 0 1 3.94-3.94h40.12m0-2h-40.12a5.94 5.94 0 0 0-5.94 5.94v82.12a5.94 5.94 0 0 0 5.94 5.94h40.12a5.94 5.94 0 0 0 5.94-5.94v-82.12a5.94 5.94 0 0 0-5.94-5.94h0z" fill="url(#P)"/><rect x="231.33" y="208.74" width="108.15" height="21" rx="2.87" fill="url(#Q)"/><path d="M336.6 208.74a2.87 2.87 0 0 1 2.87 2.87v15.25a2.87 2.87 0 0 1-2.87 2.87H234.2a2.87 2.87 0 0 1-2.87-2.87v-15.25a2.87 2.87 0 0 1 2.87-2.87h102.4m0-2H234.2c-2.69 0-4.87 2.19-4.87 4.87v15.25c0 2.69 2.19 4.87 4.87 4.87h102.4c2.69 0 4.87-2.19 4.87-4.87v-15.25c0-2.69-2.19-4.87-4.87-4.87h0z" fill="url(#R)"/><path d="M410.33,173.98v-30.49c0-4.19-1.67-8.22-4.63-11.18l-23.94-23.94c-2.97-2.97-6.99-4.63-11.18-4.63h-159.43c-8.73,0-5.82,7.08-5.82,15.82v75.37c0,8.73-2.92,15.82,5.82,15.82h162.43c4.19,0,8.22-1.67,11.18-4.63l20.94-20.94c2.97-2.97,4.63-6.99,4.63-11.18Z" fill="url(#S)"/><path d="M370.57 107.74a11.72 11.72 0 0 1 8.35 3.46l23.94 23.94a11.74 11.74 0 0 1 3.46 8.35v30.49a11.72 11.72 0 0 1-3.46 8.35l-20.94 20.94a11.74 11.74 0 0 1-8.35 3.46H211.14c-1.52 0-1.99-.28-2-.28-.47-.68-.24-3.81-.09-5.89l.27-5.64v-75.37l-.27-5.64c-.16-2.07-.39-5.21.06-5.86 0 0 .45-.31 2.03-.31h159.43m0-4H211.14c-8.73 0-5.82 7.08-5.82 15.82v75.37c0 8.73-2.92 15.82 5.82 15.82h162.43a15.83 15.83 0 0 0 11.18-4.63l20.94-20.94c2.97-2.97 4.63-6.99 4.63-11.18v-30.49a15.83 15.83 0 0 0-4.63-11.18l-23.94-23.94c-2.97-2.97-6.99-4.63-11.18-4.63h0z" fill="url(#T)"/><circle cx="271.33" cy="158.74" r="37.5" stroke="url(#U)" stroke-width="5"/><path d="M271.07,158.71s-15.47-27.85,7.75-33.08c5.02-.19-9.09,16.31-7.75,33.08Z" fill="url(#V)"/><path d="M271.05,158.68s-25.46-19.15-6.37-33.37c4.51-2.22-1.67,18.59,6.37,33.37Z" fill="url(#W)"/><path d="M271.01,158.65s-31.05-7.14-19.4-27.89c3.22-3.86,6.04,17.66,19.4,27.89Z" fill="url(#X)"/><path d="M270.97,158.65s-31.27,6.1-29.06-17.59c1.37-4.84,12.7,13.68,29.06,17.59Z" fill="url(#Y)"/><path d="M270.92,158.66s-26.08,18.29-33.71-4.25c-.72-4.97,17.17,7.33,33.71,4.25Z" fill="url(#Z)"/><path d="M270.89,158.69s-16.39,27.32-32.52,9.83c-2.68-4.25,18.66-.28,32.52-9.83Z" fill="url(#a)"/><path d="M270.87,158.73s-3.86,31.62-25.71,22.21c-4.18-2.8,16.94-7.85,25.71-22.21Z" fill="url(#b)"/><path d="M270.87,158.78s9.34,30.46-14.46,30.74c-4.95-.86,12.28-14.06,14.46-30.74Z" fill="url(#c)"/><path d="M270.89,158.82s20.92,24.03-.7,33.97c-4.87,1.23,5.5-17.84.7-33.97Z" fill="url(#d)"/><path d="M270.92,158.84s28.88,13.44,13.17,31.32c-3.95,3.11-2.23-18.53-13.17-31.32Z" fill="url(#e)"/><path d="M270.97,158.86s31.85.53,24.77,23.25c-2.34,4.45-9.58-16.02-24.77-23.25Z" fill="url(#f)"/><path d="M271.01,158.85s29.31-12.47,32.09,11.16c-.33,5.02-15.27-10.74-32.09-11.16Z" fill="url(#g)"/><path d="M271.05,158.83s21.71-23.31,33.85-2.85c1.74,4.72-18.32-3.6-33.85,2.85Z" fill="url(#h)"/><path d="M271.07,158.8s10.35-30.13,29.77-16.37c3.5,3.6-18.2,4.16-29.77,16.37Z" fill="url(#i)"/><path d="M271.08,158.75s-2.8-31.73,20.53-27.07c4.67,1.87-14.93,11.2-20.53,27.07Z" fill="url(#j)"/><rect x="328.31" y="214.34" width="4.46" height="11.9" rx="1.5" fill="url(#k)"/><rect x="319.31" y="214.34" width="4.46" height="11.9" rx="1.5" fill="url(#l)"/><rect x="310.31" y="214.34" width="4.46" height="11.9" rx="1.5" fill="url(#m)"/><rect x="301.31" y="214.34" width="4.46" height="11.9" rx="1.5" fill="url(#n)"/><rect x="292.31" y="214.34" width="4.46" height="11.9" rx="1.5" fill="url(#o)"/><rect x="283.31" y="214.34" width="4.46" height="11.9" rx="1.5" fill="url(#p)"/><rect x="274.31" y="214.34" width="4.46" height="11.9" rx="1.5" fill="url(#q)"/><rect x="265.31" y="214.34" width="4.46" height="11.9" rx="1.5" fill="url(#r)"/><rect x="256.31" y="214.34" width="4.46" height="11.9" rx="1.5" fill="url(#s)"/><rect x="247.31" y="214.34" width="4.46" height="11.9" rx="1.5" fill="url(#t)"/><rect x="238.31" y="214.34" width="4.46" height="11.9" rx="1.5" fill="url(#u)"/><rect x="190.83" y="111.24" width="15.5" height="30.32" rx="2.15" fill="url(#v)"/><rect x="190.83" y="150.38" width="15.5" height="25.36" rx="2.15" fill="url(#w)"/><path d="M195.98,172.74c-1.19,0-2.15-.96-2.15-2.15v-20.21h-.85c-1.19,0-2.15.96-2.15,2.15v21.05c0,1.19.96,2.15,2.15,2.15h11.2c1.19,0,2.15-.96,2.15-2.15v-.85h-10.35Z" fill="url(#x)" opacity=".5"/><circle cx="271.33" cy="158.74" r="9.5" fill="url(#y)" stroke="url(#z)" stroke-width="3"/><path d="M195.98,138.56c-1.19,0-2.15-.96-2.15-2.15v-25.17h-.85c-1.19,0-2.15.96-2.15,2.15v26.02c0,1.19.96,2.15,2.15,2.15h11.2c1.19,0,2.15-.96,2.15-2.15v-.85h-10.35Z" fill="url(#AA)" opacity=".5"/><path d="M211.96 220.24h-4.26c-2.41 0-4.37-1.96-4.37-4.37V90.11c0-2.41-1.96-4.37-4.37-4.37H182.2c-2.41 0-4.37-1.96-4.37-4.37v-4.26c0-2.41 1.96-4.37 4.37-4.37h29.76c2.41 0 4.37 1.96 4.37 4.37v138.76c0 2.41-1.96 4.37-4.37 4.37z" fill="url(#AB)"/><path d="M214.96,218.24h-4.26c-2.41,0-4.37-1.96-4.37-4.37v-125.76c0-2.41-1.96-4.37-4.37-4.37h-16.76c-2.41,0-4.37-1.96-4.37-4.37v-4.26c0-.85.25-1.63.67-2.3-2.08.34-3.67,2.12-3.67,4.3v4.26c0,2.41,1.96,4.37,4.37,4.37h16.76c2.41,0,4.37,1.96,4.37,4.37v125.76c0,2.41,1.96,4.37,4.37,4.37h4.26c1.57,0,2.93-.83,3.7-2.07-.23.04-.46.07-.7.07Z" fill="url(#AC)" opacity=".5"/><use xlink:href="#AR"/><use xlink:href="#AS"/><use xlink:href="#AT"/><g stroke-width="4" class="B C"><use xlink:href="#AR" stroke="url(#AD)"/><path d="M349.6,167.71v-18.7c0-.25.17-.45.42-.45h6.16c4.82,0,7.08,2.63,7.08,6.5s-2.27,6.5-7.08,6.5h-1.71v6.16c0,.25-.2.45-.45.45h-4c-.25,0-.42-.2-.42-.45ZM356.07,157.24c1.29,0,2.55-.34,2.55-2.18s-1.26-2.18-2.55-2.18h-1.6v4.37h1.6Z" stroke="url(#AD)"/><use xlink:href="#AT" stroke="url(#AD)"/></g><use xlink:href="#AR" fill="url(#AE)"/><use xlink:href="#AS" fill="url(#AE)"/><use xlink:href="#AT" fill="url(#AE)"/><use xlink:href="#AU" fill="url(#AF)"/><path d="M 374.27 135.74 L 365.64 135.74 L 360.33 124.45 L 368.96 124.45 L 374.27 135.74 Z" stroke="url(#AG)" class="B C D"/><use xlink:href="#AU" x="-16" fill="url(#AF)"/><path d="M 358.27 135.74 L 349.64 135.74 L 344.33 124.45 L 352.96 124.45 L 358.27 135.74 Z" stroke="url(#AH)" class="B C D"/><use xlink:href="#AU" x="-32" fill="url(#AF)"/><path d="M 342.27 135.74 L 333.64 135.74 L 328.33 124.45 L 336.96 124.45 L 342.27 135.74 Z" stroke="url(#AI)" class="B C D"/><use xlink:href="#AU" x="-48" fill="url(#AF)"/><path d="M 326.27 135.74 L 317.64 135.74 L 312.33 124.45 L 320.96 124.45 L 326.27 135.74 Z" stroke="url(#AJ)" class="B C D"/><use xlink:href="#AV" fill="url(#AK)"/><path d="M 374.27 181.45 L 365.64 181.45 L 360.33 192.74 L 368.96 192.74 L 374.27 181.45 Z" stroke="url(#AL)" class="B C D"/><use xlink:href="#AV" x="-16" fill="url(#AK)"/><path d="M 358.27 181.45 L 349.64 181.45 L 344.33 192.74 L 352.96 192.74 L 358.27 181.45 Z" stroke="url(#AM)" class="B C D"/><use xlink:href="#AV" x="-32" fill="url(#AK)"/><path d="M 342.27 181.45 L 333.64 181.45 L 328.33 192.74 L 336.96 192.74 L 342.27 181.45 Z" stroke="url(#AN)" class="B C D"/><use xlink:href="#AV" x="-48" fill="url(#AK)"/><path d="M 326.27 181.45 L 317.64 181.45 L 312.33 192.74 L 320.96 192.74 L 326.27 181.45 Z" stroke="url(#AO)" class="B C D"/><circle cx="254.83" cy="139.24" r="33.5" style="mix-blend-mode:color" fill="url(#AP)"/><circle cx="349.83" cy="214.24" r="68.5" style="mix-blend-mode:hard-light" fill="url(#AQ)" opacity=".5"/></svg>